<?xml version="1.0" encoding="utf-8" ?><svg xmlns="http://www.w3.org/2000/svg" xmlns:xlink="http://www.w3.org/1999/xlink" width="500" height="240" viewBox="0 0 500 240"><path fill="#242424" d="M113.355 240C113.289 239.975 113.224 239.948 113.157 239.924C110.279 238.857 104.121 238.668 100.749 238.167C96.2428 237.498 91.7382 236.38 87.3611 235.131C54.4642 225.706 27.1726 202.655 12.3773 171.798C-1.2568 143.311 -3.0521 110.583 7.38416 80.7753C17.9067 50.8714 39.8477 26.3541 68.4047 12.5896C80.6902 6.69832 93.889 2.94149 107.435 1.48014C114.874 0.723085 122.315 0.803366 129.779 0.801809L154.832 0.803666L237.43 0.810803L335.787 0.810328L366.622 0.804775C374.147 0.802022 381.692 0.656807 389.202 1.20053C399.55 1.99897 409.747 4.16098 419.528 7.63045C449.415 18.2217 473.887 40.2251 487.584 68.8219C501.429 97.4932 503.118 130.539 492.269 160.472C481.624 190.152 459.695 214.431 431.248 228.032C421.84 232.547 411.885 235.821 401.633 237.772C398.29 238.437 389.27 238.85 386.901 240L113.355 240Z"/><path fill="#FEFEFE" d="M121.2 21.3731L217.983 21.3643C238.138 21.3649 258.321 21.1517 278.472 21.4279C278.678 21.9647 278.657 22.3731 278.529 22.9217C277.061 29.1771 275.194 35.4021 273.524 41.6097L263.721 78.0597L240.678 163.775C235.699 182.242 230.591 200.688 225.836 219.213C210.19 218.987 194.523 219.152 178.875 219.154L138.316 219.159C128.713 219.165 118.959 219.481 109.398 218.499C87.9288 216.179 67.8163 206.869 52.1548 192.002C32.9522 173.853 21.8525 148.746 21.3527 122.329C20.7591 96.1844 30.5918 70.8782 48.6814 51.9934C68.3809 31.4156 93.0149 21.9942 121.2 21.3731Z"/><path fill="#242424" d="M203.266 67.8595C206.1 68.0051 208.517 68.7268 210.632 70.7014C212.679 72.591 213.859 75.2384 213.897 78.0237C213.928 79.9839 213.419 81.8177 212.311 83.441C208.999 88.295 204.686 92.7562 200.872 97.2405L179.155 122.763L151.936 154.776C147.956 159.426 144.15 164.573 139.855 168.903C137.254 171.524 133.876 173.382 130.104 173.381C128.023 173.381 126.563 172.773 124.878 171.592C120.744 168.695 117.102 164.299 113.53 160.72L92.7119 139.875C90.5109 137.637 88.2284 135.479 86.0337 133.235C83.6948 130.843 81.5931 127.921 81.6738 124.416C81.7359 121.716 83.1938 119.047 85.1252 117.205C87.1218 115.3 89.6805 114.303 92.4405 114.395C94.4011 114.46 95.9276 114.942 97.5383 116.047C102.011 119.116 107.402 125.363 111.396 129.373C117.697 135.7 124.237 141.869 130.335 148.388C145.315 130.287 160.749 112.522 175.984 94.6326L189.137 79.1285C191.645 76.1602 194.125 72.7431 197.065 70.2072C198.915 68.612 200.912 68.112 203.266 67.8595Z"/><path fill="#FEFEFE" d="M317.482 65.8746C319.638 65.6308 321.616 65.8186 323.603 66.7819C325.111 67.5127 326.408 68.7176 327.627 69.8494C331.176 73.1448 362.645 104.351 363.212 105.938C365.893 104.073 368.412 100.932 370.722 98.5868L389.437 79.6082C392.917 76.0858 398.736 69.2368 402.855 66.9305C405.078 65.6861 407.705 65.5045 410.129 66.2171C412.804 67.0033 415.191 68.842 416.487 71.328C417.7 73.6551 417.873 76.6966 417.098 79.186C416.572 80.8757 415.462 82.1817 414.309 83.4815C411.143 87.048 379.271 119.418 377.591 120.3C377.862 120.429 378.117 120.573 378.352 120.761C380.276 122.307 382.036 124.332 383.783 126.08L394.124 136.436L407.239 149.563C410.43 152.74 413.938 155.862 416.591 159.508C417.442 160.678 417.85 162.26 418.005 163.685C418.3 166.37 417.492 169.061 415.767 171.14C413.744 173.592 411.147 174.653 408.059 174.928C406.378 174.983 404.481 174.584 403.04 173.696C399.108 171.271 395.116 166.376 391.783 163.045L370.555 141.792C368.435 139.683 365.976 136.41 363.435 134.894C362.911 136.006 330.865 168.427 326.974 171.982C325.859 173.001 324.64 173.907 323.27 174.557C320.98 175.642 318.448 175.782 316.064 174.921C313.402 173.985 311.232 172.013 310.046 169.454C308.851 166.883 308.71 163.748 309.921 161.153C311.682 157.379 316.64 153.29 319.637 150.269C323.302 146.575 348.326 121.906 348.805 120.446C348.818 120.409 348.827 120.371 348.837 120.333C348.635 119.303 324.241 95.4481 322.163 93.3709C318.915 90.1239 311.005 83.349 309.645 79.1891C308.81 76.6382 308.933 73.8473 310.164 71.4411C311.732 68.3726 314.331 66.8925 317.482 65.8746Z"/></svg>