<svg width="2969" height="771" viewBox="0 0 2969 771" fill="none" xmlns="http://www.w3.org/2000/svg">
<g clip-path="url(#clip0_190_2)">
<path d="M758.815 739.243C705.873 736.169 672.734 710.392 656.864 660.199C633.565 586.509 610.971 512.571 587.993 438.767C586.152 432.853 583.663 427.165 580.123 417.792C548.503 465.968 520.446 512.133 503.272 564.825C499.553 576.237 503.479 586.164 508.23 596.577C538.404 662.72 498.744 734.231 429.176 738.869C409.13 740.205 388.902 740.069 368.829 739.044C329.651 737.043 298.105 709.736 286.337 665.506C272.129 612.109 260.2 558.038 246.794 504.396C219.761 396.223 194.589 287.461 157.526 182.402C154.778 174.613 151.772 166.853 148.123 159.504C131.261 125.539 104.269 115.992 71.8043 132.542C63.2384 136.909 55.3741 144.533 46.4481 133.098C36.6953 120.603 45.8169 112.333 52.3624 104.262C96.8369 49.4254 190.012 32.915 260.944 67.0974C320.233 95.6688 358.376 145.017 379.417 208.636C415.479 317.676 453.345 426.337 466.968 542.046C467.274 544.641 468.956 547.054 470.551 550.882C528.079 455.103 567.258 356.573 533.766 241.064C525.553 212.742 518.829 183.835 505.117 157.781C487.738 124.758 461.347 115.948 430.668 132.626C420.844 137.967 411.772 144.434 403.468 131.291C395.416 118.548 404.787 110.338 411.686 102.527C462.387 45.126 559.126 32.0523 630.336 72.6483C683.864 103.163 719.5 150.447 738.49 210.326C772.649 318.032 811.568 424.52 823.564 538.733C824.006 542.942 826.465 546.914 828.338 551.949C919.614 402.434 938.344 254.988 825.697 105.203C813.029 88.3584 795.916 75.256 780.847 60.4016C788.453 49.1016 798.011 52.6817 806.07 52.643C878.697 52.294 951.346 53.4122 1023.95 51.8682C1049.65 51.3215 1056.01 62.3416 1053.55 86.5744C1044.5 175.433 1013.46 256.732 977.23 336.147C956.684 381.181 932.381 424.061 907.255 466.442C894.733 487.563 883.095 509.474 873.182 532.071C861.61 558.449 853.544 582.512 867.851 615.029C890.9 667.413 843.676 733.191 784.811 738.861C776.994 739.614 769.073 739.157 758.815 739.243Z" fill="#15120D"/>
<path d="M2298.84 214.221C2312.53 262.339 2325.7 308.329 2341.08 362.016C2355.17 313.814 2367.93 272.618 2379.22 230.979C2411.44 112.25 2457.94 73.4901 2574.62 69.476C2586 69.0847 2597.38 69.063 2608.76 69.0644C2641.66 69.0682 2643.81 70.7839 2643.83 104.477C2643.99 302.717 2643.56 500.958 2644.32 699.194C2644.42 725.562 2636.76 735.147 2611.23 734.192C2562.26 732.36 2513.18 732.934 2464.17 733.932C2443.9 734.345 2437.11 727.119 2436.73 705.105C2435.66 642.105 2450.76 585.512 2492.06 539.332C2576.1 445.365 2602.09 329.786 2602.96 204.388C2596.16 227.168 2587.36 249.522 2582.94 272.806C2566.96 356.957 2523.79 417.095 2449.53 453.259C2398.72 478.006 2359.14 513.95 2356.13 579.331C2355.73 587.94 2351.2 592.972 2342.77 593.215C2333.15 593.491 2327.91 587.989 2327.39 578.247C2323.99 513.977 2284.42 478.863 2234.89 454.333C2162.1 418.28 2118.14 359.967 2101.19 277.04C2095.34 248.42 2085.05 220.817 2074.53 193.544C2081.15 314.356 2096.68 432.135 2179.75 525.872C2224.25 576.087 2248.76 633.982 2247.03 703.974C2246.52 724.608 2242.29 734.492 2220.75 734.014C2169.12 732.869 2117.45 733.003 2065.81 733.877C2046.22 734.208 2039.68 725.702 2039.7 705.867C2039.94 503 2039.84 300.131 2039.51 97.2638C2039.47 77.9367 2045.29 68.6335 2065.3 68.79C2097.76 69.0438 2130.05 70.6823 2162.08 75.7658C2237.23 87.691 2277.77 138.824 2298.84 214.221Z" fill="#15120D"/>
<path d="M1491.97 454.015C1491.96 391.063 1491.77 330.89 1491.97 270.718C1492.4 145.1 1553.37 68.7605 1673.12 54.438C1756.29 44.4897 1839.35 53.1626 1916.91 91.3998C1962.87 114.063 2000.1 145.947 2011.04 202.647C2021.15 255.028 2004.92 297.279 1967.9 331.563C1940 357.403 1905 369.98 1864.9 386.675C1910.73 412.714 1940.25 446.584 1958.93 490.917C1989.26 562.913 1997.85 640.161 2008.66 716.907C2010.11 727.247 2005.82 732.736 1995.93 733.211C1939.15 735.944 1884.04 730.314 1835.43 695.039C1780.64 655.292 1775.18 597.08 1782.75 534.345C1784.74 517.86 1787.59 501.493 1789.87 485.044C1796.28 438.771 1777.71 414.188 1729.92 406.036C1719.72 404.295 1707.01 406.078 1708.17 389.332C1709.17 374.788 1721.31 376.871 1730.28 375.518C1806.5 364.022 1834.02 309.519 1797.15 238.22C1760.58 167.488 1705.84 122.343 1627.35 115.423C1619.58 114.738 1611.61 115.495 1603.81 116.42C1586.24 118.505 1570.96 125.742 1565.24 144.76C1559.06 165.359 1565.26 183.776 1581.19 196.78C1595.68 208.606 1611.16 219.346 1627.15 228.784C1677.19 258.335 1699.87 303.241 1699.48 363.428C1698.78 471.733 1698.61 580.053 1699.66 688.352C1699.91 714.54 1692.7 724.432 1666.97 723.472C1617.17 721.611 1567.25 722.26 1517.39 723.151C1498.08 723.496 1491.44 716.006 1491.64 695.629C1492.42 616.025 1491.97 536.407 1491.97 454.015Z" fill="#15120D"/>
<path d="M1029.02 418.566C1062.4 348.674 1101.23 284.871 1146.91 226.007C1158.59 210.963 1160.35 197.617 1153.58 180.669C1144.41 157.693 1138.28 133.299 1124.48 112.54C1117.21 101.605 1107.88 93.2452 1095.68 89.5583C1085.07 86.3503 1077.84 80.8314 1080.34 68.1332C1082.83 55.4223 1093.15 57.8728 1101.59 57.5662C1226.84 53.0147 1350.24 139.673 1393.4 266.854C1428.98 371.683 1447.9 480.843 1458.86 591.587C1462.32 626.441 1467.37 661.165 1472.97 695.717C1476.81 719.439 1469.42 730.754 1446.17 730.272C1401.57 729.346 1356.96 728.448 1312.36 728.509C1295.68 728.532 1289.41 720.884 1287.61 703.981C1282.93 659.854 1274.85 616.34 1264.89 573.148C1260.11 552.467 1250.16 543.706 1229.9 544.987C1197 547.067 1163.81 542.868 1126.59 548.25C1146.58 610.999 1174.21 665.605 1210.9 714.996C1203.23 727.301 1192.64 722.66 1183.89 722.71C1114.74 723.109 1045.57 722.984 976.414 722.87C939.796 722.809 937.858 719.103 942.561 681.365C954.187 588.061 987.711 503.025 1029.02 418.566ZM1109.14 388.712C1102.13 425.014 1110.28 460.486 1114.37 496.185C1116.31 513.063 1125.11 519.423 1141.13 518.869C1168.22 517.932 1195.38 517.981 1222.48 518.804C1241.59 519.385 1247.39 513.421 1241.37 492.541C1221.98 425.306 1204.38 357.495 1185.37 290.135C1181.48 276.35 1179.91 261.136 1168.54 247.607C1134.69 287.064 1114.3 331.487 1109.14 388.712Z" fill="#15120D"/>
<path d="M2813.9 325.305C2813.9 325.305 2812.97 269.249 2812.97 199.11C2812.97 128.971 2812.02 71.3221 2813.9 71.3096C2880.17 71.3096 2933.89 128.168 2933.89 198.307C2933.89 268.446 2880.17 325.305 2813.9 325.305Z" fill="#15120D"/>
<path d="M2793.75 71.8673C2793.75 71.8673 2794.08 111.083 2793.75 160.144C2793.42 209.206 2793.76 249.535 2792.54 249.535C2749.62 249.225 2715.1 209.201 2715.43 160.139C2715.77 111.078 2750.83 71.557 2793.75 71.8673Z" fill="#15120D"/>
</g>
<defs>
<clipPath id="clip0_190_2">
<rect width="2968.23" height="770.565" fill="white"/>
</clipPath>
</defs>
</svg>
