<svg width="2549" height="671" viewBox="0 0 2549 671" fill="none" xmlns="http://www.w3.org/2000/svg">
<path d="M772.113 572.857C735.61 570.737 712.762 552.964 701.819 518.356C685.755 467.548 670.176 416.568 654.333 365.682C653.064 361.604 651.348 357.682 648.907 351.219C627.105 384.436 607.76 416.267 595.919 452.597C593.355 460.465 596.062 467.31 599.337 474.49C620.142 520.095 592.797 569.401 544.831 572.599C531.009 573.52 517.062 573.426 503.222 572.719C476.209 571.34 454.458 552.512 446.344 522.016C436.548 485.199 428.323 447.918 419.08 410.932C400.44 336.348 383.085 261.357 357.53 188.92C355.636 183.55 353.563 178.199 351.047 173.132C339.421 149.714 320.81 143.131 298.426 154.542C292.52 157.553 287.097 162.81 280.943 154.925C274.219 146.31 280.508 140.608 285.021 135.044C315.686 97.2341 379.929 85.8503 428.836 109.419C469.715 129.118 496.015 163.144 510.522 207.008C535.387 282.19 561.495 357.111 570.888 436.891C571.099 438.68 572.258 440.344 573.358 442.984C613.023 376.945 640.036 309.009 616.944 229.367C611.282 209.839 606.645 189.908 597.191 171.944C585.209 149.176 567.012 143.101 545.859 154.6C539.085 158.283 532.831 162.741 527.105 153.68C521.553 144.894 528.014 139.233 532.771 133.847C567.729 94.2697 634.429 85.2554 683.529 113.246C720.435 134.286 745.006 166.887 758.1 208.174C781.652 282.436 808.486 355.858 816.757 434.607C817.062 437.509 818.758 440.248 820.049 443.719C882.983 340.63 895.897 238.968 818.228 135.692C809.493 124.078 797.694 115.044 787.304 104.802C792.549 97.0108 799.138 99.4792 804.695 99.4526C854.771 99.2119 904.862 99.9829 954.919 98.9183C972.64 98.5414 977.03 106.14 975.329 122.848C969.092 184.115 947.691 240.17 922.709 294.926C908.542 325.977 891.786 355.542 874.461 384.763C865.828 399.326 857.804 414.433 850.968 430.014C842.99 448.201 837.428 464.792 847.293 487.212C863.185 523.331 830.624 568.684 790.037 572.593C784.648 573.112 779.186 572.797 772.113 572.857Z" fill="#010101"/>
<path d="M1833.95 210.86C1843.38 244.036 1852.47 275.746 1863.07 312.763C1872.78 279.528 1881.58 251.124 1889.37 222.414C1911.58 140.551 1943.64 113.827 2024.1 111.059C2031.94 110.789 2039.79 110.775 2047.63 110.775C2070.32 110.778 2071.8 111.961 2071.82 135.192C2071.92 271.877 2071.62 408.562 2072.15 545.244C2072.22 563.425 2066.94 570.033 2049.33 569.375C2015.57 568.112 1981.73 568.507 1947.94 569.195C1933.96 569.48 1929.28 564.498 1929.02 549.32C1928.28 505.881 1938.69 466.861 1967.17 435.02C2025.11 370.232 2043.03 290.54 2043.63 204.08C2038.95 219.787 2032.88 235.199 2029.83 251.253C2018.82 309.275 1989.04 350.74 1937.85 375.674C1902.81 392.737 1875.52 417.52 1873.45 462.599C1873.17 468.535 1870.05 472.005 1864.24 472.172C1857.6 472.363 1853.99 468.569 1853.63 461.852C1851.28 417.539 1824.01 393.328 1789.86 376.414C1739.66 351.557 1709.36 311.35 1697.67 254.173C1693.64 234.44 1686.54 215.407 1679.29 196.603C1683.85 279.902 1694.56 361.109 1751.84 425.74C1782.52 460.363 1799.41 500.281 1798.22 548.54C1797.87 562.767 1794.96 569.581 1780.11 569.252C1744.51 568.463 1708.88 568.555 1673.27 569.157C1659.77 569.386 1655.26 563.521 1655.27 549.845C1655.44 409.97 1655.37 270.094 1655.14 130.219C1655.12 116.893 1659.12 110.478 1672.92 110.586C1695.3 110.761 1717.57 111.891 1739.65 115.396C1791.47 123.618 1819.42 158.874 1833.95 210.86Z" fill="#010101"/>
<path d="M1277.62 376.196C1277.61 332.792 1277.48 291.303 1277.62 249.815C1277.91 163.202 1319.95 110.567 1402.52 100.692C1459.86 93.8323 1517.14 99.8121 1570.61 126.176C1602.3 141.802 1627.97 163.786 1635.51 202.88C1642.48 238.996 1631.29 268.128 1605.77 291.767C1586.53 309.583 1562.4 318.254 1534.75 329.766C1566.35 347.72 1586.7 371.072 1599.58 401.639C1620.5 451.281 1626.41 504.542 1633.87 557.457C1634.87 564.587 1631.91 568.372 1625.1 568.699C1585.94 570.583 1547.95 566.702 1514.43 542.38C1476.66 514.974 1472.89 474.838 1478.11 431.583C1479.48 420.216 1481.45 408.932 1483.02 397.59C1487.44 365.686 1474.63 348.736 1441.68 343.115C1434.65 341.915 1425.89 343.144 1426.68 331.598C1427.37 321.57 1435.75 323.006 1441.93 322.073C1494.48 314.146 1513.46 276.568 1488.04 227.407C1462.82 178.638 1425.08 147.511 1370.96 142.74C1365.6 142.268 1360.1 142.79 1354.73 143.427C1342.61 144.865 1332.08 149.855 1328.14 162.968C1323.87 177.171 1328.15 189.869 1339.14 198.835C1349.12 206.989 1359.8 214.394 1370.82 220.902C1405.32 241.277 1420.96 272.239 1420.69 313.737C1420.21 388.413 1420.09 463.098 1420.81 537.769C1420.99 555.825 1416.02 562.646 1398.28 561.984C1363.94 560.701 1329.52 561.148 1295.15 561.763C1281.83 562.001 1277.25 556.837 1277.39 542.787C1277.93 487.9 1277.62 433.005 1277.62 376.196Z" fill="#010101"/>
<path d="M958.416 351.753C981.43 303.564 1008.21 259.572 1039.7 218.986C1047.75 208.613 1048.96 199.411 1044.3 187.726C1037.98 171.884 1033.75 155.065 1024.24 140.751C1019.23 133.212 1012.79 127.448 1004.38 124.906C997.065 122.694 992.078 118.889 993.799 110.133C995.522 101.369 1002.64 103.059 1008.46 102.847C1094.82 99.7093 1179.9 159.459 1209.66 247.15C1234.18 319.428 1247.23 394.693 1254.79 471.05C1257.17 495.081 1260.66 519.024 1264.52 542.847C1267.17 559.202 1262.07 567.004 1246.04 566.672C1215.29 566.034 1184.53 565.414 1153.78 565.456C1142.28 565.472 1137.95 560.199 1136.72 548.544C1133.49 518.12 1127.92 488.117 1121.05 458.336C1117.75 444.077 1110.89 438.036 1096.92 438.92C1074.24 440.354 1051.35 437.459 1025.69 441.169C1039.47 484.435 1058.52 522.085 1083.82 556.139C1078.53 564.623 1071.23 561.424 1065.2 561.458C1017.52 561.733 969.832 561.647 922.146 561.568C896.898 561.526 895.562 558.971 898.805 532.951C906.821 468.619 929.935 409.987 958.416 351.753ZM1013.66 331.169C1008.83 356.199 1014.45 380.657 1017.27 405.271C1018.6 416.908 1024.67 421.294 1035.72 420.912C1054.4 420.266 1073.12 420.299 1091.81 420.867C1104.98 421.267 1108.98 417.155 1104.83 402.758C1091.46 356.401 1079.33 309.645 1066.22 263.201C1063.54 253.697 1062.45 243.207 1054.61 233.879C1031.27 261.084 1017.22 291.713 1013.66 331.169Z" fill="#010101"/>
<path d="M2189.08 287.451C2189.08 287.451 2188.43 248.801 2188.43 200.44C2188.43 152.08 2187.78 112.332 2189.08 112.323C2234.77 112.323 2271.8 151.527 2271.8 199.887C2271.8 248.247 2234.77 287.451 2189.08 287.451Z" fill="#010101"/>
<path d="M2175.18 112.708C2175.18 112.708 2175.41 139.747 2175.18 173.575C2174.95 207.402 2175.19 235.209 2174.35 235.209C2144.75 234.995 2120.95 207.399 2121.18 173.571C2121.41 139.744 2145.59 112.495 2175.18 112.708Z" fill="#010101"/>
</svg>
